<svg width="531" height="569" viewBox="0 0 531 569" fill="none" xmlns="http://www.w3.org/2000/svg">
<path d="M353.663 118.03C353.663 182.419 351.706 244.861 290.258 264.37C257.079 275.098 232.683 274.135 212.19 259.503C151.705 216.57 131.232 187.296 107.798 150.224C83.2798 110.627 89.7492 88.3295 81.3938 85.1354C132.986 32.5798 204.818 0 284.265 0C290.176 0 296.058 0.172378 301.868 0.567837C304.484 4.52244 308.145 9.14627 312.667 14.632C331.203 38.0453 353.653 79.9945 353.653 118.03H353.663Z" fill="#172554"/>
<path d="M530.606 142.254C509.92 144.972 480.129 151.847 453.157 168.75C420.009 189.243 396.575 212.646 382.927 212.646C379.023 212.646 372.199 209.726 372.199 200.955C372.199 189.243 377.066 168.75 377.066 121.923C377.066 75.0969 355.61 32.1641 338.037 9.72429C336.577 7.81797 335.147 6.01305 333.738 4.28925C417.91 19.0429 489.316 70.8381 530.606 142.244V142.254Z" fill="#172554"/>
<path d="M415.405 536.528C376.174 557 331.578 568.54 284.275 568.54C127.287 568.54 0 441.262 0 284.265C0 213.69 25.7049 149.149 68.303 99.443C67.9583 101.988 67.8062 104.685 67.8062 107.301C67.8062 138.523 88.2991 167.787 109.755 194.11C164.39 262.413 224.875 281.912 228.779 309.25C230.736 324.845 171.234 415.568 156.602 430.2C141.97 444.832 121.477 455.56 121.477 455.56C121.477 460.457 130.248 469.229 140.976 466.308C151.705 463.368 172.197 446.779 172.197 446.779C172.197 468.255 154.645 483.861 152.698 487.764C160.486 493.625 174.155 491.668 184.883 478C196.604 463.368 199.515 436.05 213.183 422.402C229.772 405.813 257.09 402.872 286.354 402.872C346.839 402.872 371.215 444.822 398.532 504.343C403.106 515 408.743 526.175 415.416 536.507L415.405 536.528Z" fill="#172554"/>
</svg>
